<?xml version="1.0" encoding="UTF-8" standalone="no" ?>
<!DOCTYPE svg PUBLIC "-//W3C//DTD SVG 1.1//EN" "http://www.w3.org/Graphics/SVG/1.1/DTD/svg11.dtd">
<svg xmlns="http://www.w3.org/2000/svg" xmlns:xlink="http://www.w3.org/1999/xlink" version="1.1" width="1080" height="1080" viewBox="0 0 1080 1080" xml:space="preserve">
<desc>Created with Fabric.js 5.2.4</desc>
<defs>
</defs>
<g transform="matrix(1 0 0 1 540 540)" id="9ccbfe51-2c19-48fd-ae7f-78334d0cf537"  >
<rect style="stroke: none; stroke-width: 1; stroke-dasharray: none; stroke-linecap: butt; stroke-dashoffset: 0; stroke-linejoin: miter; stroke-miterlimit: 4; fill: rgb(255,255,255); fill-rule: nonzero; opacity: 1; visibility: hidden;" vector-effect="non-scaling-stroke"  x="-540" y="-540" rx="0" ry="0" width="1080" height="1080" />
</g>
<g transform="matrix(1 0 0 1 540 540)" id="2aa1c65e-81c6-4f6f-9049-aac2e4051e83"  >
</g>
<g transform="matrix(1 0 0 1 540 540)"  >
<g style="" vector-effect="non-scaling-stroke"   >
		<g transform="matrix(1.33 0 0 1.33 -36.53 -8.44)"  >
<path style="stroke: none; stroke-width: 1; stroke-dasharray: none; stroke-linecap: butt; stroke-dashoffset: 0; stroke-linejoin: miter; stroke-miterlimit: 4; fill: rgb(55,52,53); fill-rule: evenodd; opacity: 1;" vector-effect="non-scaling-stroke"  transform=" translate(-165.07, -178.06)" d="M 165 178.125 C 165.046875 178.078125 165.097656 178.03125 165.148438 177.988281 Z M 165 178.125" stroke-linecap="round" />
</g>
		<g transform="matrix(1.33 0 0 1.33 4.79 8.33)"  >
<path style="stroke: none; stroke-width: 1; stroke-dasharray: none; stroke-linecap: butt; stroke-dashoffset: 0; stroke-linejoin: miter; stroke-miterlimit: 4; fill: rgb(217,217,217); fill-rule: evenodd; opacity: 1;" vector-effect="non-scaling-stroke"  transform=" translate(-196.06, -190.63)" d="M 148.878906 205.085938 C 157.625 200.863281 182.613281 198.859375 223.847656 199.078125 L 234.429688 186.519531 L 212.382812 185.441406 L 237.957031 183.035156 L 243.25 176.230469 C 215.300781 175.6875 180.066406 178.660156 148.878906 205.085938 Z M 148.878906 205.085938" stroke-linecap="round" />
</g>
		<g transform="matrix(1.33 0 0 1.33 -6.63 -9.48)" clip-path="url(#CLIPPATH_4)"  >
<linearGradient id="SVGID_26f7f39e9b_3" gradientUnits="userSpaceOnUse" gradientTransform="matrix(0.03 0 0 0.03 121.15 130.48)"  x1="1656.012086" y1="-488.354559" x2="2908.433124" y2="3765.08244">
<stop offset="0%" style="stop-color:rgb(25,193,232);stop-opacity: 1"/>
<stop offset="12.5%" style="stop-color:rgb(25,193,232);stop-opacity: 1"/>
<stop offset="15.625%" style="stop-color:rgb(25,193,232);stop-opacity: 1"/>
<stop offset="17.1875%" style="stop-color:rgb(25,191,232);stop-opacity: 1"/>
<stop offset="18.75%" style="stop-color:rgb(25,191,229);stop-opacity: 1"/>
<stop offset="20.3125%" style="stop-color:rgb(25,191,229);stop-opacity: 1"/>
<stop offset="21.875%" style="stop-color:rgb(22,188,226);stop-opacity: 1"/>
<stop offset="23.4375%" style="stop-color:rgb(22,188,226);stop-opacity: 1"/>
<stop offset="25%" style="stop-color:rgb(22,188,226);stop-opacity: 1"/>
<stop offset="26.5625%" style="stop-color:rgb(22,186,224);stop-opacity: 1"/>
<stop offset="28.125%" style="stop-color:rgb(22,186,224);stop-opacity: 1"/>
<stop offset="29.441699999999997%" style="stop-color:rgb(22,186,224);stop-opacity: 1"/>
<stop offset="29.6875%" style="stop-color:rgb(22,186,221);stop-opacity: 1"/>
<stop offset="31.25%" style="stop-color:rgb(22,186,221);stop-opacity: 1"/>
<stop offset="32.8125%" style="stop-color:rgb(22,183,221);stop-opacity: 1"/>
<stop offset="34.375%" style="stop-color:rgb(22,183,221);stop-opacity: 1"/>
<stop offset="35.9375%" style="stop-color:rgb(22,183,219);stop-opacity: 1"/>
<stop offset="37.5%" style="stop-color:rgb(22,181,219);stop-opacity: 1"/>
<stop offset="39.0625%" style="stop-color:rgb(22,181,216);stop-opacity: 1"/>
<stop offset="40.625%" style="stop-color:rgb(22,181,216);stop-opacity: 1"/>
<stop offset="42.1875%" style="stop-color:rgb(22,178,216);stop-opacity: 1"/>
<stop offset="43.75%" style="stop-color:rgb(22,178,214);stop-opacity: 1"/>
<stop offset="45.3125%" style="stop-color:rgb(22,178,214);stop-opacity: 1"/>
<stop offset="46.875%" style="stop-color:rgb(22,175,214);stop-opacity: 1"/>
<stop offset="48.4375%" style="stop-color:rgb(22,175,211);stop-opacity: 1"/>
<stop offset="50%" style="stop-color:rgb(20,175,211);stop-opacity: 1"/>
<stop offset="51.5625%" style="stop-color:rgb(20,175,211);stop-opacity: 1"/>
<stop offset="53.125%" style="stop-color:rgb(20,173,209);stop-opacity: 1"/>
<stop offset="54.6875%" style="stop-color:rgb(20,173,209);stop-opacity: 1"/>
<stop offset="56.25%" style="stop-color:rgb(20,173,206);stop-opacity: 1"/>
<stop offset="57.8125%" style="stop-color:rgb(20,170,206);stop-opacity: 1"/>
<stop offset="59.375%" style="stop-color:rgb(20,170,206);stop-opacity: 1"/>
<stop offset="60.9375%" style="stop-color:rgb(20,170,204);stop-opacity: 1"/>
<stop offset="62.5%" style="stop-color:rgb(20,168,204);stop-opacity: 1"/>
<stop offset="64.0625%" style="stop-color:rgb(20,168,204);stop-opacity: 1"/>
<stop offset="65.625%" style="stop-color:rgb(20,168,201);stop-opacity: 1"/>
<stop offset="67.1875%" style="stop-color:rgb(20,165,201);stop-opacity: 1"/>
<stop offset="68.75%" style="stop-color:rgb(20,165,201);stop-opacity: 1"/>
<stop offset="70.3125%" style="stop-color:rgb(20,165,198);stop-opacity: 1"/>
<stop offset="70.5583%" style="stop-color:rgb(20,165,198);stop-opacity: 1"/>
<stop offset="71.875%" style="stop-color:rgb(20,163,198);stop-opacity: 1"/>
<stop offset="73.4375%" style="stop-color:rgb(20,163,196);stop-opacity: 1"/>
<stop offset="75%" style="stop-color:rgb(20,163,196);stop-opacity: 1"/>
<stop offset="76.5625%" style="stop-color:rgb(20,163,196);stop-opacity: 1"/>
<stop offset="78.125%" style="stop-color:rgb(17,160,193);stop-opacity: 1"/>
<stop offset="79.6875%" style="stop-color:rgb(17,160,193);stop-opacity: 1"/>
<stop offset="81.25%" style="stop-color:rgb(17,160,193);stop-opacity: 1"/>
<stop offset="82.8125%" style="stop-color:rgb(17,158,191);stop-opacity: 1"/>
<stop offset="84.375%" style="stop-color:rgb(17,158,191);stop-opacity: 1"/>
<stop offset="85.9375%" style="stop-color:rgb(17,158,191);stop-opacity: 1"/>
<stop offset="87.5%" style="stop-color:rgb(17,155,188);stop-opacity: 1"/>
<stop offset="89.0625%" style="stop-color:rgb(17,155,188);stop-opacity: 1"/>
<stop offset="90.625%" style="stop-color:rgb(17,155,188);stop-opacity: 1"/>
<stop offset="92.1875%" style="stop-color:rgb(17,155,186);stop-opacity: 1"/>
<stop offset="93.75%" style="stop-color:rgb(17,153,186);stop-opacity: 1"/>
<stop offset="95.3125%" style="stop-color:rgb(17,153,183);stop-opacity: 1"/>
<stop offset="96.875%" style="stop-color:rgb(17,153,183);stop-opacity: 1"/>
<stop offset="98.4375%" style="stop-color:rgb(17,150,183);stop-opacity: 1"/>
<stop offset="100%" style="stop-color:rgb(17,150,181);stop-opacity: 1"/>
</linearGradient>
<clipPath id="CLIPPATH_4" >
	<path transform="matrix(1 0 0 1 0 0.01) translate(-187.5, -177.29)" id="875" clip-path="url(#undefined)" d="M 179.394531 204.644531 C 156.996094 204.476562 136.542969 211.308594 121.152344 224.09375 C 137.808594 215.300781 157.488281 211.257812 178.246094 212.363281 C 168.917969 213.441406 160.253906 216.285156 152.726562 220.730469 C 215.253906 217.285156 248.957031 207.933594 253.84375 192.671875 C 246.328125 199.824219 221.511719 203.8125 179.394531 204.644531 Z M 198.335938 167.582031 C 190.742188 163.609375 182.152344 166.277344 170.15625 173.96875 L 170.238281 173.910156 C 169.011719 169.136719 166.085938 165.003906 162.113281 162.71875 C 163.898438 167.667969 164.871094 172.894531 165 178.125 C 159.175781 183.507812 153.507812 191.121094 148 200.960938 C 170.433594 186.242188 189.835938 177.40625 206.207031 174.460938 C 205.292969 173.328125 204.378906 172.308594 203.457031 171.40625 C 196.394531 170.792969 188.914062 172.472656 181.019531 176.441406 C 186.035156 172.214844 191.808594 169.261719 198.335938 167.582031 Z M 154.039062 150.960938 C 172.589844 134.835938 197.738281 129.984375 218.746094 138.484375 C 239.75 146.980469 252.902344 167.324219 252.574219 190.828125 C 252.671875 189.40625 252.722656 187.976562 252.722656 186.539062 C 252.722656 152.527344 225.152344 127.554688 191.140625 130.757812 C 157.132812 133.957031 129.5625 164.125 129.5625 198.132812 C 129.5625 203.742188 130.3125 209.105469 131.71875 214.136719 C 126.808594 191.640625 135.484375 167.089844 154.039062 150.960938 Z M 154.039062 150.960938" stroke-linecap="round" />
</clipPath>
<path style="stroke: none; stroke-width: 1; stroke-dasharray: none; stroke-linecap: butt; stroke-dashoffset: 0; stroke-linejoin: miter; stroke-miterlimit: 4; fill: url(#SVGID_26f7f39e9b_3); fill-rule: nonzero; opacity: 1;" vector-effect="non-scaling-stroke"  transform=" translate(-187.5, -177.28)" d="M 121.152344 130.457031 L 121.152344 224.09375 L 253.84375 224.09375 L 253.84375 130.457031 Z M 121.152344 130.457031" stroke-linecap="round" />
</g>
		<g transform="matrix(1.33 0 0 1.33 -85.13 82.1)"  >
<path style="stroke: none; stroke-width: 1; stroke-dasharray: none; stroke-linecap: butt; stroke-dashoffset: 0; stroke-linejoin: miter; stroke-miterlimit: 4; fill: rgb(217,217,217); fill-rule: nonzero; opacity: 1;" vector-effect="non-scaling-stroke"  transform=" translate(-7.07, 7.44)" d="M 0.96875 -0.953125 L 1.875 -0.875 C 2.175781 -0.875 2.328125 -1.054688 2.328125 -1.421875 L 2.328125 -13.53125 C 2.328125 -13.675781 2.28125 -13.800781 2.1875 -13.90625 C 2.09375 -14.019531 1.972656 -14.066406 1.828125 -14.046875 L 0.96875 -14 L 0.96875 -14.921875 L 12 -14.921875 C 12.226562 -14.921875 12.367188 -14.929688 12.421875 -14.953125 L 12.421875 -11.078125 L 11.546875 -11.078125 C 11.546875 -12.128906 11.257812 -12.882812 10.6875 -13.34375 C 10.125 -13.8125 9.226562 -14.046875 8 -14.046875 L 6.078125 -14.046875 C 5.878906 -14.046875 5.78125 -13.929688 5.78125 -13.703125 L 5.78125 -8.125 L 7.578125 -8.125 C 8.140625 -8.125 8.59375 -8.347656 8.9375 -8.796875 C 9.289062 -9.242188 9.46875 -9.863281 9.46875 -10.65625 L 10.328125 -10.65625 L 10.328125 -4.78125 L 9.46875 -4.78125 C 9.46875 -5.476562 9.28125 -6.0625 8.90625 -6.53125 C 8.53125 -7.007812 8.085938 -7.25 7.578125 -7.25 L 5.78125 -7.25 L 5.78125 -1.21875 C 5.78125 -1.007812 5.878906 -0.90625 6.078125 -0.90625 L 8.828125 -0.90625 C 9.960938 -0.90625 10.820312 -1.210938 11.40625 -1.828125 C 12 -2.441406 12.296875 -3.320312 12.296875 -4.46875 L 13.171875 -4.46875 L 13.171875 0.078125 C 12.804688 0.0234375 12.007812 0 10.78125 0 L 0.96875 0 Z M 0.96875 -0.953125" stroke-linecap="round" />
</g>
		<g transform="matrix(1.33 0 0 1.33 -67.52 82.12)"  >
<path style="stroke: none; stroke-width: 1; stroke-dasharray: none; stroke-linecap: butt; stroke-dashoffset: 0; stroke-linejoin: miter; stroke-miterlimit: 4; fill: rgb(217,217,217); fill-rule: nonzero; opacity: 1;" vector-effect="non-scaling-stroke"  transform=" translate(-6.63, 7.42)" d="M 0.96875 -0.953125 L 1.953125 -0.875 C 2.203125 -0.875 2.328125 -1.054688 2.328125 -1.421875 L 2.328125 -13.53125 C 2.328125 -13.675781 2.28125 -13.800781 2.1875 -13.90625 C 2.09375 -14.019531 1.976562 -14.066406 1.84375 -14.046875 L 0.96875 -14 L 0.96875 -14.921875 L 7.5 -14.921875 L 7.5 -14 L 6.28125 -14.046875 L 6.21875 -14.046875 C 6.09375 -14.046875 5.988281 -13.992188 5.90625 -13.890625 C 5.820312 -13.796875 5.78125 -13.675781 5.78125 -13.53125 L 5.78125 -1.21875 C 5.78125 -1.007812 5.878906 -0.90625 6.078125 -0.90625 L 8.15625 -0.90625 C 9.238281 -0.90625 10.0625 -1.191406 10.625 -1.765625 C 11.1875 -2.335938 11.46875 -3.175781 11.46875 -4.28125 L 12.296875 -4.28125 L 12.296875 0.078125 C 11.992188 0.0234375 10.960938 0 9.203125 0 L 0.96875 0 Z M 0.96875 -0.953125" stroke-linecap="round" />
</g>
		<g transform="matrix(1.33 0 0 1.33 -43.65 82.13)"  >
<path style="stroke: none; stroke-width: 1; stroke-dasharray: none; stroke-linecap: butt; stroke-dashoffset: 0; stroke-linejoin: miter; stroke-miterlimit: 4; fill: rgb(217,217,217); fill-rule: nonzero; opacity: 1;" vector-effect="non-scaling-stroke"  transform=" translate(-7.81, 7.41)" d="M 15.671875 -14.921875 L 15.671875 -14 L 14.78125 -14.046875 C 14.644531 -14.066406 14.546875 -14.035156 14.484375 -13.953125 C 14.429688 -13.867188 14.351562 -13.707031 14.25 -13.46875 L 8.375 0.09375 L 7.078125 0.09375 L 1.21875 -13.46875 C 1.039062 -13.851562 0.851562 -14.046875 0.65625 -14.046875 L -0.046875 -14 L -0.046875 -14.921875 L 6.34375 -14.921875 L 6.34375 -14 L 5.09375 -14.046875 C 5.007812 -14.046875 4.941406 -14.007812 4.890625 -13.9375 C 4.847656 -13.863281 4.828125 -13.773438 4.828125 -13.671875 C 4.828125 -13.617188 4.84375 -13.546875 4.875 -13.453125 L 8.96875 -3.96875 L 12.96875 -13.171875 C 13.09375 -13.421875 13.15625 -13.625 13.15625 -13.78125 C 13.15625 -13.957031 13.050781 -14.046875 12.84375 -14.046875 L 11.65625 -14 L 11.65625 -14.921875 Z M 15.671875 -14.921875" stroke-linecap="round" />
</g>
		<g transform="matrix(1.33 0 0 1.33 -29.25 82.07)"  >
<path style="stroke: none; stroke-width: 1; stroke-dasharray: none; stroke-linecap: butt; stroke-dashoffset: 0; stroke-linejoin: miter; stroke-miterlimit: 4; fill: rgb(217,217,217); fill-rule: nonzero; opacity: 1;" vector-effect="non-scaling-stroke"  transform=" translate(-4.06, 7.46)" d="M 0.96875 -0.921875 L 1.84375 -0.875 L 1.90625 -0.875 C 2.1875 -0.875 2.328125 -1.054688 2.328125 -1.421875 L 2.328125 -13.53125 C 2.328125 -13.675781 2.285156 -13.800781 2.203125 -13.90625 C 2.117188 -14.019531 2 -14.066406 1.84375 -14.046875 L 0.96875 -14 L 0.96875 -14.921875 L 7.15625 -14.921875 L 7.15625 -14 L 6.28125 -14.046875 L 6.21875 -14.046875 C 6.09375 -14.046875 5.988281 -13.992188 5.90625 -13.890625 C 5.820312 -13.796875 5.78125 -13.675781 5.78125 -13.53125 L 5.78125 -1.421875 C 5.78125 -1.023438 5.945312 -0.84375 6.28125 -0.875 L 7.15625 -0.921875 L 7.15625 0 L 0.96875 0 Z M 0.96875 -0.921875" stroke-linecap="round" />
</g>
		<g transform="matrix(1.33 0 0 1.33 -14.45 81.9)"  >
<path style="stroke: none; stroke-width: 1; stroke-dasharray: none; stroke-linecap: butt; stroke-dashoffset: 0; stroke-linejoin: miter; stroke-miterlimit: 4; fill: rgb(217,217,217); fill-rule: nonzero; opacity: 1;" vector-effect="non-scaling-stroke"  transform=" translate(-7.66, 7.59)" d="M 15.828125 -0.921875 L 15.828125 0 L 8.328125 0 L 8.328125 -0.921875 L 9.46875 -0.875 C 9.96875 -0.820312 10.21875 -1.019531 10.21875 -1.46875 C 10.21875 -1.757812 10.132812 -2.085938 9.96875 -2.453125 L 9.046875 -4.65625 L 3.546875 -4.65625 L 2.703125 -2.59375 C 2.460938 -2.082031 2.34375 -1.664062 2.34375 -1.34375 C 2.34375 -1 2.53125 -0.832031 2.90625 -0.84375 L 4.03125 -0.921875 L 4.03125 0 L -0.5 0 L -0.5 -0.921875 L 0.21875 -0.875 L 0.328125 -0.875 C 0.660156 -0.875 0.9375 -1.03125 1.15625 -1.34375 C 1.40625 -1.71875 1.65625 -2.203125 1.90625 -2.796875 L 7.046875 -15.171875 L 8.28125 -15.171875 L 13.46875 -2.75 C 13.707031 -2.144531 13.953125 -1.671875 14.203125 -1.328125 C 14.429688 -1.023438 14.722656 -0.875 15.078125 -0.875 L 15.203125 -0.875 Z M 3.90625 -5.53125 L 8.703125 -5.53125 L 6.28125 -11.28125 Z M 3.90625 -5.53125" stroke-linecap="round" />
</g>
		<g transform="matrix(1.33 0 0 1.33 14.42 82.24)"  >
<path style="stroke: none; stroke-width: 1; stroke-dasharray: none; stroke-linecap: butt; stroke-dashoffset: 0; stroke-linejoin: miter; stroke-miterlimit: 4; fill: rgb(217,217,217); fill-rule: nonzero; opacity: 1;" vector-effect="non-scaling-stroke"  transform=" translate(-5.61, 7.34)" d="M 0.59375 -4.296875 L 1.703125 -4.296875 C 1.703125 -3.378906 1.867188 -2.53125 2.203125 -1.75 C 2.535156 -0.976562 3.078125 -0.59375 3.828125 -0.59375 C 4.546875 -0.59375 5.054688 -0.882812 5.359375 -1.46875 C 5.671875 -2.050781 5.828125 -3.050781 5.828125 -4.46875 L 5.828125 -13.53125 C 5.828125 -13.675781 5.78125 -13.800781 5.6875 -13.90625 C 5.59375 -14.019531 5.476562 -14.066406 5.34375 -14.046875 L 3.625 -14 L 3.625 -14.921875 L 10.625 -14.921875 L 10.625 -14 L 9.78125 -14.046875 L 9.71875 -14.046875 C 9.59375 -14.046875 9.488281 -13.992188 9.40625 -13.890625 C 9.320312 -13.796875 9.28125 -13.679688 9.28125 -13.546875 L 9.28125 -4.46875 C 9.28125 -1.320312 7.65625 0.25 4.40625 0.25 C 3.9375 0.25 3.285156 0.175781 2.453125 0.03125 C 1.953125 -0.0703125 1.625 -0.125 1.46875 -0.125 L 1.28125 -0.125 C 0.925781 -0.125 0.695312 -0.0703125 0.59375 0.03125 Z M 0.59375 -4.296875" stroke-linecap="round" />
</g>
		<g transform="matrix(1.33 0 0 1.33 30.83 82.1)"  >
<path style="stroke: none; stroke-width: 1; stroke-dasharray: none; stroke-linecap: butt; stroke-dashoffset: 0; stroke-linejoin: miter; stroke-miterlimit: 4; fill: rgb(217,217,217); fill-rule: nonzero; opacity: 1;" vector-effect="non-scaling-stroke"  transform=" translate(-7.07, 7.44)" d="M 0.96875 -0.953125 L 1.875 -0.875 C 2.175781 -0.875 2.328125 -1.054688 2.328125 -1.421875 L 2.328125 -13.53125 C 2.328125 -13.675781 2.28125 -13.800781 2.1875 -13.90625 C 2.09375 -14.019531 1.972656 -14.066406 1.828125 -14.046875 L 0.96875 -14 L 0.96875 -14.921875 L 12 -14.921875 C 12.226562 -14.921875 12.367188 -14.929688 12.421875 -14.953125 L 12.421875 -11.078125 L 11.546875 -11.078125 C 11.546875 -12.128906 11.257812 -12.882812 10.6875 -13.34375 C 10.125 -13.8125 9.226562 -14.046875 8 -14.046875 L 6.078125 -14.046875 C 5.878906 -14.046875 5.78125 -13.929688 5.78125 -13.703125 L 5.78125 -8.125 L 7.578125 -8.125 C 8.140625 -8.125 8.59375 -8.347656 8.9375 -8.796875 C 9.289062 -9.242188 9.46875 -9.863281 9.46875 -10.65625 L 10.328125 -10.65625 L 10.328125 -4.78125 L 9.46875 -4.78125 C 9.46875 -5.476562 9.28125 -6.0625 8.90625 -6.53125 C 8.53125 -7.007812 8.085938 -7.25 7.578125 -7.25 L 5.78125 -7.25 L 5.78125 -1.21875 C 5.78125 -1.007812 5.878906 -0.90625 6.078125 -0.90625 L 8.828125 -0.90625 C 9.960938 -0.90625 10.820312 -1.210938 11.40625 -1.828125 C 12 -2.441406 12.296875 -3.320312 12.296875 -4.46875 L 13.171875 -4.46875 L 13.171875 0.078125 C 12.804688 0.0234375 12.007812 0 10.78125 0 L 0.96875 0 Z M 0.96875 -0.953125" stroke-linecap="round" />
</g>
		<g transform="matrix(1.33 0 0 1.33 49.94 82.07)"  >
<path style="stroke: none; stroke-width: 1; stroke-dasharray: none; stroke-linecap: butt; stroke-dashoffset: 0; stroke-linejoin: miter; stroke-miterlimit: 4; fill: rgb(217,217,217); fill-rule: nonzero; opacity: 1;" vector-effect="non-scaling-stroke"  transform=" translate(-7.75, 7.46)" d="M 0.96875 -0.921875 L 1.84375 -0.875 L 1.90625 -0.875 C 2.1875 -0.875 2.328125 -1.054688 2.328125 -1.421875 L 2.328125 -13.53125 C 2.328125 -13.675781 2.28125 -13.800781 2.1875 -13.90625 C 2.09375 -14.019531 1.957031 -14.066406 1.78125 -14.046875 L 0.96875 -14 L 0.96875 -14.921875 L 7.453125 -14.921875 C 9.253906 -14.921875 10.582031 -14.613281 11.4375 -14 C 12.289062 -13.394531 12.71875 -12.453125 12.71875 -11.171875 C 12.71875 -10.160156 12.394531 -9.3125 11.75 -8.625 C 11.113281 -7.9375 10.226562 -7.476562 9.09375 -7.25 C 9.695312 -7.25 10.304688 -7.082031 10.921875 -6.75 C 11.535156 -6.414062 12.046875 -5.925781 12.453125 -5.28125 C 12.867188 -4.644531 13.078125 -3.898438 13.078125 -3.046875 C 13.078125 -2.578125 13.144531 -2.082031 13.28125 -1.5625 C 13.425781 -1.039062 13.597656 -0.753906 13.796875 -0.703125 C 13.898438 -0.671875 14.007812 -0.65625 14.125 -0.65625 C 14.269531 -0.65625 14.40625 -0.6875 14.53125 -0.75 L 14.53125 0 L 10.09375 0 C 9.894531 -0.414062 9.78125 -0.96875 9.75 -1.65625 C 9.71875 -2.082031 9.703125 -2.394531 9.703125 -2.59375 L 9.703125 -3.421875 C 9.703125 -4.554688 9.382812 -5.398438 8.75 -5.953125 C 8.113281 -6.503906 7.347656 -6.78125 6.453125 -6.78125 L 5.78125 -6.78125 L 5.78125 -1.421875 C 5.78125 -1.054688 5.945312 -0.875 6.28125 -0.875 L 7.5 -0.921875 L 7.5 0 L 0.96875 0 Z M 7.34375 -7.65625 C 7.945312 -7.65625 8.425781 -7.941406 8.78125 -8.515625 C 9.144531 -9.085938 9.328125 -9.863281 9.328125 -10.84375 C 9.328125 -11.96875 9.125 -12.78125 8.71875 -13.28125 C 8.320312 -13.789062 7.707031 -14.046875 6.875 -14.046875 L 6.078125 -14.046875 C 5.878906 -14.046875 5.78125 -13.960938 5.78125 -13.796875 L 5.78125 -7.65625 Z M 7.34375 -7.65625" stroke-linecap="round" />
</g>
		<g transform="matrix(1.33 0 0 1.33 69.97 82.07)"  >
<path style="stroke: none; stroke-width: 1; stroke-dasharray: none; stroke-linecap: butt; stroke-dashoffset: 0; stroke-linejoin: miter; stroke-miterlimit: 4; fill: rgb(217,217,217); fill-rule: nonzero; opacity: 1;" vector-effect="non-scaling-stroke"  transform=" translate(-8.48, 7.46)" d="M 0.75 -7.46875 C 0.75 -9.957031 1.421875 -11.863281 2.765625 -13.1875 C 4.117188 -14.507812 6.019531 -15.171875 8.46875 -15.171875 C 10.957031 -15.171875 12.867188 -14.492188 14.203125 -13.140625 C 15.535156 -11.796875 16.203125 -9.90625 16.203125 -7.46875 C 16.203125 -5.019531 15.523438 -3.117188 14.171875 -1.765625 C 12.828125 -0.421875 10.925781 0.25 8.46875 0.25 C 6.019531 0.25 4.117188 -0.421875 2.765625 -1.765625 C 1.421875 -3.117188 0.75 -5.019531 0.75 -7.46875 Z M 4.53125 -7.46875 C 4.53125 -5.71875 4.671875 -4.347656 4.953125 -3.359375 C 5.234375 -2.367188 5.65625 -1.664062 6.21875 -1.25 C 6.789062 -0.832031 7.539062 -0.625 8.46875 -0.625 C 9.40625 -0.625 10.15625 -0.832031 10.71875 -1.25 C 11.289062 -1.664062 11.71875 -2.367188 12 -3.359375 C 12.28125 -4.347656 12.421875 -5.71875 12.421875 -7.46875 C 12.421875 -9.207031 12.28125 -10.578125 12 -11.578125 C 11.71875 -12.578125 11.289062 -13.285156 10.71875 -13.703125 C 10.15625 -14.117188 9.40625 -14.328125 8.46875 -14.328125 C 7.539062 -14.328125 6.789062 -14.117188 6.21875 -13.703125 C 5.65625 -13.285156 5.234375 -12.578125 4.953125 -11.578125 C 4.671875 -10.578125 4.53125 -9.207031 4.53125 -7.46875 Z M 4.53125 -7.46875" stroke-linecap="round" />
</g>
		<g transform="matrix(1.33 0 0 1.33 -92.8 -11.05)"  >
<path style="stroke: none; stroke-width: 1; stroke-dasharray: none; stroke-linecap: butt; stroke-dashoffset: 0; stroke-linejoin: miter; stroke-miterlimit: 4; fill: rgb(217,217,217); fill-rule: nonzero; opacity: 1;" vector-effect="non-scaling-stroke"  transform=" translate(3.2, 4)" d="M -2.84375 -5.4375 C -2.738281 -5.695312 -2.570312 -5.914062 -2.34375 -6.09375 C -2.113281 -6.28125 -1.847656 -6.410156 -1.546875 -6.484375 C -1.253906 -6.566406 -0.960938 -6.570312 -0.671875 -6.5 C -0.285156 -6.414062 0.0351562 -6.242188 0.296875 -5.984375 C 0.554688 -5.722656 0.734375 -5.390625 0.828125 -4.984375 C 0.921875 -4.578125 0.910156 -4.117188 0.796875 -3.609375 L 0.1875 -0.828125 L -7.296875 -2.484375 L -6.703125 -5.171875 C -6.597656 -5.671875 -6.421875 -6.082031 -6.171875 -6.40625 C -5.921875 -6.738281 -5.632812 -6.960938 -5.3125 -7.078125 C -4.988281 -7.191406 -4.644531 -7.207031 -4.28125 -7.125 C -3.832031 -7.019531 -3.488281 -6.816406 -3.25 -6.515625 C -3.019531 -6.210938 -2.882812 -5.851562 -2.84375 -5.4375 Z M -3.859375 -2.734375 L -3.484375 -4.390625 C -3.390625 -4.847656 -3.421875 -5.222656 -3.578125 -5.515625 C -3.734375 -5.804688 -4.003906 -5.992188 -4.390625 -6.078125 C -4.773438 -6.160156 -5.101562 -6.101562 -5.375 -5.90625 C -5.644531 -5.707031 -5.828125 -5.375 -5.921875 -4.90625 L -6.296875 -3.265625 Z M -0.03125 -3.71875 C 0.0703125 -4.1875 0.0390625 -4.582031 -0.125 -4.90625 C -0.289062 -5.238281 -0.578125 -5.453125 -0.984375 -5.546875 C -1.398438 -5.640625 -1.757812 -5.566406 -2.0625 -5.328125 C -2.363281 -5.097656 -2.566406 -4.75 -2.671875 -4.28125 L -3.0625 -2.5625 L -0.421875 -1.96875 Z M -0.03125 -3.71875" stroke-linecap="round" />
</g>
		<g transform="matrix(1.33 0 0 1.33 -89.05 -19.89)"  >
<path style="stroke: none; stroke-width: 1; stroke-dasharray: none; stroke-linecap: butt; stroke-dashoffset: 0; stroke-linejoin: miter; stroke-miterlimit: 4; fill: rgb(217,217,217); fill-rule: nonzero; opacity: 1;" vector-effect="non-scaling-stroke"  transform=" translate(1.79, 4.28)" d="M 1.171875 -3.265625 C 0.992188 -2.734375 0.710938 -2.285156 0.328125 -1.921875 C -0.0546875 -1.566406 -0.515625 -1.34375 -1.046875 -1.25 C -1.578125 -1.15625 -2.140625 -1.203125 -2.734375 -1.390625 C -3.328125 -1.578125 -3.804688 -1.875 -4.171875 -2.28125 C -4.535156 -2.6875 -4.765625 -3.144531 -4.859375 -3.65625 C -4.953125 -4.164062 -4.910156 -4.691406 -4.734375 -5.234375 C -4.554688 -5.773438 -4.273438 -6.226562 -3.890625 -6.59375 C -3.515625 -6.96875 -3.0625 -7.203125 -2.53125 -7.296875 C -2 -7.398438 -1.4375 -7.359375 -0.84375 -7.171875 C -0.25 -6.984375 0.226562 -6.679688 0.59375 -6.265625 C 0.957031 -5.859375 1.1875 -5.390625 1.28125 -4.859375 C 1.382812 -4.335938 1.347656 -3.804688 1.171875 -3.265625 Z M 0.328125 -3.53125 C 0.441406 -3.875 0.46875 -4.222656 0.40625 -4.578125 C 0.351562 -4.929688 0.195312 -5.253906 -0.0625 -5.546875 C -0.332031 -5.847656 -0.695312 -6.070312 -1.15625 -6.21875 C -1.613281 -6.363281 -2.03125 -6.394531 -2.40625 -6.3125 C -2.789062 -6.238281 -3.109375 -6.078125 -3.359375 -5.828125 C -3.617188 -5.585938 -3.800781 -5.300781 -3.90625 -4.96875 C -4.019531 -4.613281 -4.046875 -4.269531 -3.984375 -3.9375 C -3.921875 -3.601562 -3.753906 -3.289062 -3.484375 -3 C -3.222656 -2.71875 -2.863281 -2.503906 -2.40625 -2.359375 C -1.9375 -2.203125 -1.515625 -2.15625 -1.140625 -2.21875 C -0.773438 -2.289062 -0.46875 -2.441406 -0.21875 -2.671875 C 0.03125 -2.910156 0.210938 -3.195312 0.328125 -3.53125 Z M 0.328125 -3.53125" stroke-linecap="round" />
</g>
		<g transform="matrix(1.33 0 0 1.33 -85.11 -29.35)"  >
<path style="stroke: none; stroke-width: 1; stroke-dasharray: none; stroke-linecap: butt; stroke-dashoffset: 0; stroke-linejoin: miter; stroke-miterlimit: 4; fill: rgb(217,217,217); fill-rule: nonzero; opacity: 1;" vector-effect="non-scaling-stroke"  transform=" translate(0.91, 4.9)" d="M -2.578125 -1.65625 C -3.140625 -1.90625 -3.582031 -2.238281 -3.90625 -2.65625 C -4.238281 -3.070312 -4.429688 -3.53125 -4.484375 -4.03125 C -4.535156 -4.539062 -4.457031 -5.039062 -4.25 -5.53125 C -4.03125 -6.007812 -3.738281 -6.378906 -3.375 -6.640625 C -3.007812 -6.910156 -2.628906 -7.0625 -2.234375 -7.09375 L -3.25 -7.546875 L -2.84375 -8.484375 L 2.671875 -6.03125 L 2.265625 -5.09375 L 1.234375 -5.546875 C 1.472656 -5.222656 1.617188 -4.835938 1.671875 -4.390625 C 1.722656 -3.941406 1.640625 -3.484375 1.421875 -3.015625 C 1.203125 -2.515625 0.890625 -2.117188 0.484375 -1.828125 C 0.078125 -1.535156 -0.394531 -1.367188 -0.9375 -1.328125 C -1.476562 -1.296875 -2.023438 -1.40625 -2.578125 -1.65625 Z M -0.5 -6.328125 C -0.914062 -6.503906 -1.3125 -6.578125 -1.6875 -6.546875 C -2.070312 -6.515625 -2.410156 -6.394531 -2.703125 -6.1875 C -3.003906 -5.976562 -3.226562 -5.707031 -3.375 -5.375 C -3.53125 -5.03125 -3.585938 -4.679688 -3.546875 -4.328125 C -3.515625 -3.972656 -3.378906 -3.644531 -3.140625 -3.34375 C -2.910156 -3.039062 -2.582031 -2.796875 -2.15625 -2.609375 C -1.738281 -2.421875 -1.335938 -2.335938 -0.953125 -2.359375 C -0.566406 -2.390625 -0.234375 -2.507812 0.046875 -2.71875 C 0.335938 -2.925781 0.5625 -3.203125 0.71875 -3.546875 C 0.863281 -3.878906 0.921875 -4.222656 0.890625 -4.578125 C 0.859375 -4.941406 0.722656 -5.273438 0.484375 -5.578125 C 0.242188 -5.890625 -0.0820312 -6.140625 -0.5 -6.328125 Z M -0.5 -6.328125" stroke-linecap="round" />
</g>
		<g transform="matrix(1.33 0 0 1.33 -82.82 -36.61)"  >
<path style="stroke: none; stroke-width: 1; stroke-dasharray: none; stroke-linecap: butt; stroke-dashoffset: 0; stroke-linejoin: miter; stroke-miterlimit: 4; fill: rgb(217,217,217); fill-rule: nonzero; opacity: 1;" vector-effect="non-scaling-stroke"  transform=" translate(2.19, 3.76)" d="M -3.578125 -4.296875 L -0.46875 -2.609375 C -0.207031 -2.460938 0.00390625 -2.414062 0.171875 -2.46875 C 0.347656 -2.519531 0.507812 -2.679688 0.65625 -2.953125 L 1 -3.609375 L 1.734375 -3.203125 L 1.3125 -2.40625 C 1.039062 -1.914062 0.726562 -1.609375 0.375 -1.484375 C 0.0195312 -1.359375 -0.414062 -1.441406 -0.9375 -1.734375 L -4.046875 -3.421875 L -4.421875 -2.734375 L -5.15625 -3.140625 L -4.78125 -3.828125 L -6.109375 -4.546875 L -5.640625 -5.421875 L -4.3125 -4.703125 L -3.5625 -6.09375 L -2.828125 -5.6875 Z M -3.578125 -4.296875" stroke-linecap="round" />
</g>
		<g transform="matrix(1.33 0 0 1.33 -77.81 -44.22)"  >
<path style="stroke: none; stroke-width: 1; stroke-dasharray: none; stroke-linecap: butt; stroke-dashoffset: 0; stroke-linejoin: miter; stroke-miterlimit: 4; fill: rgb(217,217,217); fill-rule: nonzero; opacity: 1;" vector-effect="non-scaling-stroke"  transform=" translate(1.74, 3.65)" d="M -3.140625 -4.375 C -3.316406 -4.707031 -3.394531 -5.0625 -3.375 -5.4375 C -3.351562 -5.820312 -3.207031 -6.207031 -2.9375 -6.59375 L -2.078125 -6.015625 L -2.234375 -5.796875 C -2.867188 -4.867188 -2.6875 -4.0625 -1.6875 -3.375 L 1.03125 -1.53125 L 0.46875 -0.703125 L -4.515625 -4.09375 L -3.953125 -4.921875 Z M -3.140625 -4.375" stroke-linecap="round" />
</g>
		<g transform="matrix(1.33 0 0 1.33 -72.88 -49.82)"  >
<path style="stroke: none; stroke-width: 1; stroke-dasharray: none; stroke-linecap: butt; stroke-dashoffset: 0; stroke-linejoin: miter; stroke-miterlimit: 4; fill: rgb(217,217,217); fill-rule: nonzero; opacity: 1;" vector-effect="non-scaling-stroke"  transform=" translate(0.2, 4.57)" d="M 1.4375 -6.984375 C 1.582031 -6.859375 1.726562 -6.722656 1.875 -6.578125 L -1.125 -2.828125 C -0.632812 -2.472656 -0.144531 -2.335938 0.34375 -2.421875 C 0.832031 -2.503906 1.242188 -2.753906 1.578125 -3.171875 C 1.847656 -3.503906 1.992188 -3.84375 2.015625 -4.1875 C 2.035156 -4.539062 1.953125 -4.867188 1.765625 -5.171875 L 2.4375 -6.015625 C 2.789062 -5.523438 2.957031 -4.976562 2.9375 -4.375 C 2.914062 -3.769531 2.679688 -3.191406 2.234375 -2.640625 C 1.878906 -2.191406 1.457031 -1.867188 0.96875 -1.671875 C 0.488281 -1.484375 -0.015625 -1.4375 -0.546875 -1.53125 C -1.078125 -1.625 -1.582031 -1.863281 -2.0625 -2.25 C -2.550781 -2.632812 -2.898438 -3.070312 -3.109375 -3.5625 C -3.328125 -4.0625 -3.390625 -4.566406 -3.296875 -5.078125 C -3.210938 -5.585938 -2.988281 -6.070312 -2.625 -6.53125 C -2.269531 -6.976562 -1.859375 -7.289062 -1.390625 -7.46875 C -0.921875 -7.65625 -0.441406 -7.703125 0.046875 -7.609375 C 0.546875 -7.523438 1.007812 -7.316406 1.4375 -6.984375 Z M 0.609375 -6.296875 C 0.316406 -6.535156 0.015625 -6.675781 -0.296875 -6.71875 C -0.617188 -6.757812 -0.925781 -6.710938 -1.21875 -6.578125 C -1.519531 -6.441406 -1.78125 -6.234375 -2 -5.953125 C -2.3125 -5.566406 -2.453125 -5.128906 -2.421875 -4.640625 C -2.398438 -4.160156 -2.179688 -3.722656 -1.765625 -3.328125 Z M 0.609375 -6.296875" stroke-linecap="round" />
</g>
		<g transform="matrix(1.33 0 0 1.33 -66.72 -56.2)"  >
<path style="stroke: none; stroke-width: 1; stroke-dasharray: none; stroke-linecap: butt; stroke-dashoffset: 0; stroke-linejoin: miter; stroke-miterlimit: 4; fill: rgb(217,217,217); fill-rule: nonzero; opacity: 1;" vector-effect="non-scaling-stroke"  transform=" translate(-0.32, 4.2)" d="M -1.75 -6.984375 C -1.226562 -7.515625 -0.648438 -7.785156 -0.015625 -7.796875 C 0.609375 -7.816406 1.222656 -7.535156 1.828125 -6.953125 L 4.359375 -4.46875 L 3.671875 -3.765625 L 1.234375 -6.140625 C 0.796875 -6.566406 0.363281 -6.78125 -0.0625 -6.78125 C -0.5 -6.789062 -0.898438 -6.609375 -1.265625 -6.234375 C -1.640625 -5.847656 -1.816406 -5.425781 -1.796875 -4.96875 C -1.785156 -4.519531 -1.550781 -4.078125 -1.09375 -3.640625 L 1.28125 -1.3125 L 0.59375 -0.609375 L -3.71875 -4.828125 L -3.03125 -5.53125 L -2.421875 -4.921875 C -2.492188 -5.273438 -2.46875 -5.632812 -2.34375 -6 C -2.226562 -6.363281 -2.03125 -6.691406 -1.75 -6.984375 Z M -1.75 -6.984375" stroke-linecap="round" />
</g>
		<g transform="matrix(1.33 0 0 1.33 -61.68 -62.61)"  >
<path style="stroke: none; stroke-width: 1; stroke-dasharray: none; stroke-linecap: butt; stroke-dashoffset: 0; stroke-linejoin: miter; stroke-miterlimit: 4; fill: rgb(217,217,217); fill-rule: nonzero; opacity: 1;" vector-effect="non-scaling-stroke"  transform=" translate(0.72, 4.15)" d="M -1.875 -5.265625 L 0.453125 -2.609375 C 0.648438 -2.378906 0.832031 -2.257812 1 -2.25 C 1.175781 -2.25 1.382812 -2.351562 1.625 -2.5625 L 2.171875 -3.046875 L 2.734375 -2.40625 L 2.0625 -1.796875 C 1.644531 -1.429688 1.242188 -1.253906 0.859375 -1.265625 C 0.484375 -1.273438 0.0976562 -1.503906 -0.296875 -1.953125 L -2.625 -4.609375 L -3.203125 -4.09375 L -3.75 -4.71875 L -3.171875 -5.234375 L -4.171875 -6.375 L -3.421875 -7.03125 L -2.421875 -5.890625 L -1.234375 -6.9375 L -0.6875 -6.3125 Z M -1.875 -5.265625" stroke-linecap="round" />
</g>
		<g transform="matrix(1.33 0 0 1.33 -54.85 -67.25)"  >
<path style="stroke: none; stroke-width: 1; stroke-dasharray: none; stroke-linecap: butt; stroke-dashoffset: 0; stroke-linejoin: miter; stroke-miterlimit: 4; fill: rgb(217,217,217); fill-rule: nonzero; opacity: 1;" vector-effect="non-scaling-stroke"  transform=" translate(-1.59, 5.05)" d="M -1.4375 -2.71875 C -1.800781 -3.207031 -2.019531 -3.710938 -2.09375 -4.234375 C -2.164062 -4.753906 -2.101562 -5.25 -1.90625 -5.71875 C -1.71875 -6.195312 -1.410156 -6.59375 -0.984375 -6.90625 C -0.554688 -7.21875 -0.117188 -7.394531 0.328125 -7.4375 C 0.785156 -7.488281 1.191406 -7.4375 1.546875 -7.28125 L 0.890625 -8.171875 L 1.703125 -8.78125 L 5.296875 -3.9375 L 4.484375 -3.328125 L 3.8125 -4.234375 C 3.851562 -3.828125 3.785156 -3.414062 3.609375 -3 C 3.441406 -2.582031 3.148438 -2.21875 2.734375 -1.90625 C 2.296875 -1.582031 1.828125 -1.394531 1.328125 -1.34375 C 0.828125 -1.289062 0.332031 -1.382812 -0.15625 -1.625 C -0.644531 -1.863281 -1.070312 -2.226562 -1.4375 -2.71875 Z M 2.671875 -5.765625 C 2.410156 -6.117188 2.101562 -6.375 1.75 -6.53125 C 1.40625 -6.695312 1.050781 -6.757812 0.6875 -6.71875 C 0.320312 -6.6875 -0.0078125 -6.5625 -0.3125 -6.34375 C -0.601562 -6.113281 -0.820312 -5.832031 -0.96875 -5.5 C -1.113281 -5.175781 -1.15625 -4.820312 -1.09375 -4.4375 C -1.039062 -4.0625 -0.878906 -3.691406 -0.609375 -3.328125 C -0.328125 -2.953125 -0.015625 -2.679688 0.328125 -2.515625 C 0.679688 -2.347656 1.035156 -2.285156 1.390625 -2.328125 C 1.742188 -2.367188 2.066406 -2.503906 2.359375 -2.734375 C 2.660156 -2.953125 2.882812 -3.222656 3.03125 -3.546875 C 3.1875 -3.878906 3.234375 -4.238281 3.171875 -4.625 C 3.117188 -5.007812 2.953125 -5.390625 2.671875 -5.765625 Z M 2.671875 -5.765625" stroke-linecap="round" />
</g>
		<g transform="matrix(1.33 0 0 1.33 -50.53 -71.74)"  >
<path style="stroke: none; stroke-width: 1; stroke-dasharray: none; stroke-linecap: butt; stroke-dashoffset: 0; stroke-linejoin: miter; stroke-miterlimit: 4; fill: rgb(217,217,217); fill-rule: nonzero; opacity: 1;" vector-effect="non-scaling-stroke"  transform=" translate(1.05, 4.16)" d="M -2.8125 -7.859375 L 1.5625 -0.984375 L 0.71875 -0.453125 L -3.65625 -7.328125 Z M -2.8125 -7.859375" stroke-linecap="round" />
</g>
		<g transform="matrix(1.33 0 0 1.33 -45.3 -68.59)"  >
<path style="stroke: none; stroke-width: 1; stroke-dasharray: none; stroke-linecap: butt; stroke-dashoffset: 0; stroke-linejoin: miter; stroke-miterlimit: 4; fill: rgb(217,217,217); fill-rule: nonzero; opacity: 1;" vector-effect="non-scaling-stroke"  transform=" translate(-0.66, 0.39)" d="M 0.90625 -2.15625 L 1.359375 1.03125 L 0.78125 1.375 L -0.03125 -1.59375 Z M 0.90625 -2.15625" stroke-linecap="round" />
</g>
		<g transform="matrix(1.33 0 0 1.33 -40.68 -74.97)"  >
<path style="stroke: none; stroke-width: 1; stroke-dasharray: none; stroke-linecap: butt; stroke-dashoffset: 0; stroke-linejoin: miter; stroke-miterlimit: 4; fill: rgb(217,217,217); fill-rule: nonzero; opacity: 1;" vector-effect="non-scaling-stroke"  transform=" translate(0.17, 2.75)" d="M -1.828125 -6.890625 C -2.003906 -6.804688 -2.179688 -6.796875 -2.359375 -6.859375 C -2.535156 -6.929688 -2.664062 -7.050781 -2.75 -7.21875 C -2.832031 -7.382812 -2.84375 -7.554688 -2.78125 -7.734375 C -2.726562 -7.910156 -2.613281 -8.039062 -2.4375 -8.125 C -2.269531 -8.207031 -2.097656 -8.21875 -1.921875 -8.15625 C -1.742188 -8.09375 -1.613281 -7.976562 -1.53125 -7.8125 C -1.445312 -7.644531 -1.429688 -7.46875 -1.484375 -7.28125 C -1.546875 -7.101562 -1.660156 -6.972656 -1.828125 -6.890625 Z M 2.265625 0.34375 C 2.492188 0.820312 2.539062 1.234375 2.40625 1.578125 C 2.28125 1.921875 1.984375 2.207031 1.515625 2.4375 L 1 2.6875 L 0.625 1.9375 L 1 1.75 C 1.25 1.632812 1.398438 1.5 1.453125 1.34375 C 1.503906 1.195312 1.46875 1.003906 1.34375 0.765625 L -1.875 -5.8125 L -0.96875 -6.25 Z M 2.265625 0.34375" stroke-linecap="round" />
</g>
		<g transform="matrix(1.33 0 0 1.33 -34.71 -78.35)"  >
<path style="stroke: none; stroke-width: 1; stroke-dasharray: none; stroke-linecap: butt; stroke-dashoffset: 0; stroke-linejoin: miter; stroke-miterlimit: 4; fill: rgb(217,217,217); fill-rule: nonzero; opacity: 1;" vector-effect="non-scaling-stroke"  transform=" translate(-2.03, 4.1)" d="M 4.640625 -5.421875 C 4.710938 -5.234375 4.78125 -5.035156 4.84375 -4.828125 L 0.390625 -3 C 0.648438 -2.46875 1.007812 -2.113281 1.46875 -1.9375 C 1.9375 -1.769531 2.421875 -1.789062 2.921875 -2 C 3.316406 -2.164062 3.609375 -2.394531 3.796875 -2.6875 C 3.984375 -2.988281 4.066406 -3.316406 4.046875 -3.671875 L 5.046875 -4.078125 C 5.117188 -3.472656 5 -2.910156 4.6875 -2.390625 C 4.375 -1.878906 3.890625 -1.488281 3.234375 -1.21875 C 2.703125 -1 2.179688 -0.921875 1.671875 -0.984375 C 1.160156 -1.054688 0.691406 -1.257812 0.265625 -1.59375 C -0.148438 -1.9375 -0.472656 -2.398438 -0.703125 -2.984375 C -0.941406 -3.546875 -1.035156 -4.09375 -0.984375 -4.625 C -0.929688 -5.164062 -0.738281 -5.632812 -0.40625 -6.03125 C -0.0820312 -6.4375 0.347656 -6.753906 0.890625 -6.984375 C 1.410156 -7.203125 1.921875 -7.273438 2.421875 -7.203125 C 2.921875 -7.128906 3.363281 -6.9375 3.75 -6.625 C 4.144531 -6.320312 4.441406 -5.921875 4.640625 -5.421875 Z M 3.609375 -5.21875 C 3.460938 -5.570312 3.257812 -5.84375 3 -6.03125 C 2.75 -6.21875 2.457031 -6.320312 2.125 -6.34375 C 1.800781 -6.363281 1.476562 -6.3125 1.15625 -6.1875 C 0.6875 -5.988281 0.34375 -5.671875 0.125 -5.234375 C -0.0820312 -4.796875 -0.0976562 -4.304688 0.078125 -3.765625 Z M 3.609375 -5.21875" stroke-linecap="round" />
</g>
		<g transform="matrix(1.33 0 0 1.33 -27.96 -81.86)"  >
<path style="stroke: none; stroke-width: 1; stroke-dasharray: none; stroke-linecap: butt; stroke-dashoffset: 0; stroke-linejoin: miter; stroke-miterlimit: 4; fill: rgb(217,217,217); fill-rule: nonzero; opacity: 1;" vector-effect="non-scaling-stroke"  transform=" translate(-0.95, 4.26)" d="M 0.375 -5.578125 L 1.453125 -2.203125 C 1.546875 -1.910156 1.664062 -1.726562 1.8125 -1.65625 C 1.96875 -1.582031 2.195312 -1.59375 2.5 -1.6875 L 3.203125 -1.90625 L 3.46875 -1.109375 L 2.609375 -0.84375 C 2.078125 -0.664062 1.640625 -0.65625 1.296875 -0.8125 C 0.953125 -0.976562 0.6875 -1.34375 0.5 -1.90625 L -0.578125 -5.28125 L -1.328125 -5.046875 L -1.578125 -5.828125 L -0.828125 -6.0625 L -1.296875 -7.515625 L -0.34375 -7.8125 L 0.125 -6.359375 L 1.625 -6.84375 L 1.875 -6.0625 Z M 0.375 -5.578125" stroke-linecap="round" />
</g>
		<g transform="matrix(1.33 0 0 1.33 -17.72 -83.49)"  >
<path style="stroke: none; stroke-width: 1; stroke-dasharray: none; stroke-linecap: butt; stroke-dashoffset: 0; stroke-linejoin: miter; stroke-miterlimit: 4; fill: rgb(217,217,217); fill-rule: nonzero; opacity: 1;" vector-effect="non-scaling-stroke"  transform=" translate(-2.24, 3.53)" d="M 2.9375 -0.5 C 2.476562 -0.40625 2.050781 -0.398438 1.65625 -0.484375 C 1.269531 -0.566406 0.941406 -0.722656 0.671875 -0.953125 C 0.410156 -1.179688 0.234375 -1.476562 0.140625 -1.84375 L 1.15625 -2.046875 C 1.25 -1.742188 1.4375 -1.523438 1.71875 -1.390625 C 2.007812 -1.265625 2.351562 -1.242188 2.75 -1.328125 C 3.125 -1.398438 3.40625 -1.539062 3.59375 -1.75 C 3.78125 -1.957031 3.847656 -2.191406 3.796875 -2.453125 C 3.742188 -2.703125 3.585938 -2.867188 3.328125 -2.953125 C 3.066406 -3.035156 2.6875 -3.085938 2.1875 -3.109375 C 1.71875 -3.128906 1.332031 -3.171875 1.03125 -3.234375 C 0.738281 -3.296875 0.46875 -3.421875 0.21875 -3.609375 C -0.0195312 -3.804688 -0.179688 -4.09375 -0.265625 -4.46875 C -0.328125 -4.78125 -0.296875 -5.078125 -0.171875 -5.359375 C -0.046875 -5.648438 0.164062 -5.898438 0.46875 -6.109375 C 0.78125 -6.328125 1.144531 -6.476562 1.5625 -6.5625 C 2.21875 -6.695312 2.78125 -6.640625 3.25 -6.390625 C 3.71875 -6.140625 4.023438 -5.738281 4.171875 -5.1875 L 3.203125 -4.984375 C 3.117188 -5.273438 2.941406 -5.492188 2.671875 -5.640625 C 2.410156 -5.785156 2.082031 -5.816406 1.6875 -5.734375 C 1.34375 -5.660156 1.082031 -5.523438 0.90625 -5.328125 C 0.726562 -5.140625 0.664062 -4.921875 0.71875 -4.671875 C 0.757812 -4.484375 0.851562 -4.335938 1 -4.234375 C 1.15625 -4.140625 1.335938 -4.070312 1.546875 -4.03125 C 1.753906 -3.988281 2.035156 -3.960938 2.390625 -3.953125 C 2.828125 -3.921875 3.191406 -3.875 3.484375 -3.8125 C 3.773438 -3.757812 4.035156 -3.640625 4.265625 -3.453125 C 4.503906 -3.265625 4.664062 -2.992188 4.75 -2.640625 C 4.8125 -2.316406 4.773438 -2.007812 4.640625 -1.71875 C 4.515625 -1.425781 4.300781 -1.171875 4 -0.953125 C 3.707031 -0.734375 3.351562 -0.582031 2.9375 -0.5 Z M 2.9375 -0.5" stroke-linecap="round" />
</g>
		<g transform="matrix(1.33 0 0 1.33 -9.87 -85.86)"  >
<path style="stroke: none; stroke-width: 1; stroke-dasharray: none; stroke-linecap: butt; stroke-dashoffset: 0; stroke-linejoin: miter; stroke-miterlimit: 4; fill: rgb(217,217,217); fill-rule: nonzero; opacity: 1;" vector-effect="non-scaling-stroke"  transform=" translate(-2.7, 4.2)" d="M 4.1875 -0.5 L 1.515625 -2.859375 L 1.828125 -0.21875 L 0.84375 -0.09375 L -0.140625 -8.171875 L 0.84375 -8.296875 L 1.421875 -3.546875 L 3.421875 -6.484375 L 4.796875 -6.65625 L 2.359375 -3.34375 L 5.53125 -0.671875 Z M 4.1875 -0.5" stroke-linecap="round" />
</g>
		<g transform="matrix(1.33 0 0 1.33 -4.78 -86.76)"  >
<path style="stroke: none; stroke-width: 1; stroke-dasharray: none; stroke-linecap: butt; stroke-dashoffset: 0; stroke-linejoin: miter; stroke-miterlimit: 4; fill: rgb(217,217,217); fill-rule: nonzero; opacity: 1;" vector-effect="non-scaling-stroke"  transform=" translate(-1.03, 4.24)" d="M 0.9375 -7.0625 C 0.75 -7.050781 0.582031 -7.109375 0.4375 -7.234375 C 0.300781 -7.367188 0.226562 -7.53125 0.21875 -7.71875 C 0.207031 -7.90625 0.257812 -8.066406 0.375 -8.203125 C 0.5 -8.347656 0.65625 -8.425781 0.84375 -8.4375 C 1.03125 -8.445312 1.191406 -8.390625 1.328125 -8.265625 C 1.472656 -8.140625 1.550781 -7.984375 1.5625 -7.796875 C 1.570312 -7.609375 1.515625 -7.441406 1.390625 -7.296875 C 1.273438 -7.148438 1.125 -7.070312 0.9375 -7.0625 Z M 1.46875 -6.125 L 1.84375 -0.109375 L 0.84375 -0.046875 L 0.46875 -6.0625 Z M 1.46875 -6.125" stroke-linecap="round" />
</g>
		<g transform="matrix(1.33 0 0 1.33 1.06 -85.4)"  >
<path style="stroke: none; stroke-width: 1; stroke-dasharray: none; stroke-linecap: butt; stroke-dashoffset: 0; stroke-linejoin: miter; stroke-miterlimit: 4; fill: rgb(217,217,217); fill-rule: nonzero; opacity: 1;" vector-effect="non-scaling-stroke"  transform=" translate(-2.85, 3.02)" d="M 2.984375 0.09375 C 2.515625 0.09375 2.097656 0.015625 1.734375 -0.140625 C 1.367188 -0.296875 1.078125 -0.515625 0.859375 -0.796875 C 0.648438 -1.078125 0.535156 -1.398438 0.515625 -1.765625 L 1.546875 -1.765625 C 1.578125 -1.460938 1.71875 -1.21875 1.96875 -1.03125 C 2.226562 -0.84375 2.5625 -0.75 2.96875 -0.75 C 3.351562 -0.75 3.65625 -0.832031 3.875 -1 C 4.09375 -1.164062 4.203125 -1.378906 4.203125 -1.640625 C 4.203125 -1.898438 4.082031 -2.09375 3.84375 -2.21875 C 3.613281 -2.351562 3.253906 -2.484375 2.765625 -2.609375 C 2.316406 -2.722656 1.953125 -2.835938 1.671875 -2.953125 C 1.390625 -3.078125 1.144531 -3.257812 0.9375 -3.5 C 0.738281 -3.738281 0.640625 -4.050781 0.640625 -4.4375 C 0.640625 -4.75 0.726562 -5.03125 0.90625 -5.28125 C 1.09375 -5.539062 1.351562 -5.742188 1.6875 -5.890625 C 2.019531 -6.046875 2.398438 -6.125 2.828125 -6.125 C 3.492188 -6.125 4.035156 -5.953125 4.453125 -5.609375 C 4.867188 -5.273438 5.09375 -4.816406 5.125 -4.234375 L 4.125 -4.234375 C 4.101562 -4.546875 3.976562 -4.796875 3.75 -4.984375 C 3.519531 -5.179688 3.207031 -5.28125 2.8125 -5.28125 C 2.457031 -5.28125 2.171875 -5.203125 1.953125 -5.046875 C 1.742188 -4.890625 1.640625 -4.6875 1.640625 -4.4375 C 1.640625 -4.238281 1.703125 -4.078125 1.828125 -3.953125 C 1.960938 -3.828125 2.125 -3.722656 2.3125 -3.640625 C 2.507812 -3.566406 2.78125 -3.484375 3.125 -3.390625 C 3.550781 -3.273438 3.898438 -3.160156 4.171875 -3.046875 C 4.453125 -2.929688 4.6875 -2.757812 4.875 -2.53125 C 5.070312 -2.300781 5.175781 -2.003906 5.1875 -1.640625 C 5.1875 -1.304688 5.09375 -1.007812 4.90625 -0.75 C 4.71875 -0.488281 4.457031 -0.28125 4.125 -0.125 C 3.789062 0.0195312 3.410156 0.09375 2.984375 0.09375 Z M 2.984375 0.09375" stroke-linecap="round" />
</g>
		<g transform="matrix(1.33 0 0 1.33 13.83 -84.42)"  >
<path style="stroke: none; stroke-width: 1; stroke-dasharray: none; stroke-linecap: butt; stroke-dashoffset: 0; stroke-linejoin: miter; stroke-miterlimit: 4; fill: rgb(217,217,217); fill-rule: nonzero; opacity: 1;" vector-effect="non-scaling-stroke"  transform=" translate(-4.08, 2.39)" d="M 0.875 -2.9375 C 0.957031 -3.550781 1.148438 -4.070312 1.453125 -4.5 C 1.765625 -4.9375 2.15625 -5.25 2.625 -5.4375 C 3.09375 -5.632812 3.585938 -5.703125 4.109375 -5.640625 C 4.640625 -5.566406 5.082031 -5.390625 5.4375 -5.109375 C 5.789062 -4.828125 6.039062 -4.5 6.1875 -4.125 L 6.328125 -5.234375 L 7.328125 -5.109375 L 6.53125 0.875 L 5.53125 0.75 L 5.6875 -0.359375 C 5.4375 -0.046875 5.101562 0.195312 4.6875 0.375 C 4.269531 0.550781 3.800781 0.601562 3.28125 0.53125 C 2.75 0.457031 2.285156 0.265625 1.890625 -0.046875 C 1.492188 -0.367188 1.203125 -0.78125 1.015625 -1.28125 C 0.835938 -1.789062 0.789062 -2.34375 0.875 -2.9375 Z M 5.9375 -2.25 C 6 -2.695312 5.957031 -3.097656 5.8125 -3.453125 C 5.675781 -3.816406 5.46875 -4.109375 5.1875 -4.328125 C 4.90625 -4.554688 4.578125 -4.695312 4.203125 -4.75 C 3.828125 -4.800781 3.472656 -4.757812 3.140625 -4.625 C 2.816406 -4.488281 2.539062 -4.265625 2.3125 -3.953125 C 2.09375 -3.640625 1.953125 -3.253906 1.890625 -2.796875 C 1.828125 -2.347656 1.863281 -1.941406 2 -1.578125 C 2.132812 -1.210938 2.34375 -0.921875 2.625 -0.703125 C 2.90625 -0.492188 3.234375 -0.363281 3.609375 -0.3125 C 3.984375 -0.257812 4.332031 -0.296875 4.65625 -0.421875 C 4.988281 -0.554688 5.269531 -0.78125 5.5 -1.09375 C 5.726562 -1.414062 5.875 -1.800781 5.9375 -2.25 Z M 5.9375 -2.25" stroke-linecap="round" />
</g>
		<g transform="matrix(1.33 0 0 1.33 23.12 -82.75)"  >
<path style="stroke: none; stroke-width: 1; stroke-dasharray: none; stroke-linecap: butt; stroke-dashoffset: 0; stroke-linejoin: miter; stroke-miterlimit: 4; fill: rgb(217,217,217); fill-rule: nonzero; opacity: 1;" vector-effect="non-scaling-stroke"  transform=" translate(-3.92, 2.09)" d="M 5.109375 -5.078125 C 5.828125 -4.910156 6.351562 -4.554688 6.6875 -4.015625 C 7.03125 -3.472656 7.101562 -2.796875 6.90625 -1.984375 L 6.078125 1.46875 L 5.125 1.234375 L 5.921875 -2.078125 C 6.066406 -2.660156 6.023438 -3.144531 5.796875 -3.53125 C 5.578125 -3.914062 5.21875 -4.164062 4.71875 -4.28125 C 4.195312 -4.40625 3.742188 -4.34375 3.359375 -4.09375 C 2.984375 -3.84375 2.722656 -3.410156 2.578125 -2.796875 L 1.796875 0.4375 L 0.828125 0.203125 L 2.234375 -5.65625 L 3.203125 -5.421875 L 3 -4.59375 C 3.257812 -4.84375 3.578125 -5.007812 3.953125 -5.09375 C 4.328125 -5.1875 4.710938 -5.179688 5.109375 -5.078125 Z M 5.109375 -5.078125" stroke-linecap="round" />
</g>
		<g transform="matrix(1.33 0 0 1.33 33.48 -80.29)"  >
<path style="stroke: none; stroke-width: 1; stroke-dasharray: none; stroke-linecap: butt; stroke-dashoffset: 0; stroke-linejoin: miter; stroke-miterlimit: 4; fill: rgb(217,217,217); fill-rule: nonzero; opacity: 1;" vector-effect="non-scaling-stroke"  transform=" translate(-5.07, 1.81)" d="M 1.4375 -2.703125 C 1.644531 -3.285156 1.945312 -3.753906 2.34375 -4.109375 C 2.738281 -4.472656 3.179688 -4.703125 3.671875 -4.796875 C 4.171875 -4.890625 4.675781 -4.847656 5.1875 -4.671875 C 5.625 -4.515625 6 -4.265625 6.3125 -3.921875 C 6.632812 -3.585938 6.832031 -3.21875 6.90625 -2.8125 L 7.96875 -5.8125 L 8.921875 -5.484375 L 6.21875 2.1875 L 5.265625 1.859375 L 5.640625 0.78125 C 5.335938 1.050781 4.960938 1.226562 4.515625 1.3125 C 4.066406 1.40625 3.597656 1.367188 3.109375 1.203125 C 2.609375 1.023438 2.195312 0.738281 1.875 0.34375 C 1.550781 -0.0507812 1.347656 -0.515625 1.265625 -1.046875 C 1.179688 -1.578125 1.238281 -2.128906 1.4375 -2.703125 Z M 6.265625 -1 C 6.421875 -1.425781 6.46875 -1.828125 6.40625 -2.203125 C 6.34375 -2.585938 6.191406 -2.914062 5.953125 -3.1875 C 5.722656 -3.46875 5.429688 -3.671875 5.078125 -3.796875 C 4.722656 -3.921875 4.375 -3.945312 4.03125 -3.875 C 3.6875 -3.8125 3.367188 -3.648438 3.078125 -3.390625 C 2.796875 -3.128906 2.578125 -2.785156 2.421875 -2.359375 C 2.273438 -1.921875 2.226562 -1.507812 2.28125 -1.125 C 2.34375 -0.738281 2.488281 -0.410156 2.71875 -0.140625 C 2.945312 0.117188 3.238281 0.3125 3.59375 0.4375 C 3.945312 0.5625 4.300781 0.59375 4.65625 0.53125 C 5.007812 0.46875 5.328125 0.304688 5.609375 0.046875 C 5.898438 -0.210938 6.117188 -0.5625 6.265625 -1 Z M 6.265625 -1" stroke-linecap="round" />
</g>
		<g transform="matrix(1.33 0 0 1.33 47.53 -74.54)"  >
<path style="stroke: none; stroke-width: 1; stroke-dasharray: none; stroke-linecap: butt; stroke-dashoffset: 0; stroke-linejoin: miter; stroke-miterlimit: 4; fill: rgb(217,217,217); fill-rule: nonzero; opacity: 1;" vector-effect="non-scaling-stroke"  transform=" translate(-6.23, 0.95)" d="M 10.671875 -1.0625 L 6.15625 3.328125 L 5.25 2.84375 L 6.25 -2.046875 L 2.6875 1.453125 L 1.78125 0.96875 L 2.984375 -5.234375 L 3.890625 -4.75 L 2.703125 0.359375 L 6.421875 -3.375 L 7.328125 -2.890625 L 6.1875 2.265625 L 9.8125 -1.53125 Z M 10.671875 -1.0625" stroke-linecap="round" />
</g>
		<g transform="matrix(1.33 0 0 1.33 56.34 -67.57)"  >
<path style="stroke: none; stroke-width: 1; stroke-dasharray: none; stroke-linecap: butt; stroke-dashoffset: 0; stroke-linejoin: miter; stroke-miterlimit: 4; fill: rgb(217,217,217); fill-rule: nonzero; opacity: 1;" vector-effect="non-scaling-stroke"  transform=" translate(-5.17, -0.08)" d="M 2.140625 -2.21875 C 2.492188 -2.71875 2.90625 -3.085938 3.375 -3.328125 C 3.84375 -3.566406 4.328125 -3.664062 4.828125 -3.625 C 5.335938 -3.582031 5.8125 -3.40625 6.25 -3.09375 C 6.6875 -2.789062 6.992188 -2.429688 7.171875 -2.015625 C 7.359375 -1.609375 7.429688 -1.210938 7.390625 -0.828125 L 8.03125 -1.734375 L 8.859375 -1.140625 L 5.390625 3.796875 L 4.5625 3.203125 L 5.203125 2.28125 C 4.835938 2.457031 4.429688 2.523438 3.984375 2.484375 C 3.535156 2.453125 3.097656 2.289062 2.671875 2 C 2.234375 1.6875 1.910156 1.296875 1.703125 0.828125 C 1.492188 0.367188 1.425781 -0.125 1.5 -0.65625 C 1.570312 -1.195312 1.785156 -1.71875 2.140625 -2.21875 Z M 6.3125 0.71875 C 6.5625 0.351562 6.707031 -0.015625 6.75 -0.390625 C 6.800781 -0.773438 6.75 -1.128906 6.59375 -1.453125 C 6.445312 -1.785156 6.222656 -2.0625 5.921875 -2.28125 C 5.609375 -2.5 5.273438 -2.625 4.921875 -2.65625 C 4.566406 -2.6875 4.21875 -2.613281 3.875 -2.4375 C 3.539062 -2.269531 3.242188 -2 2.984375 -1.625 C 2.710938 -1.25 2.550781 -0.867188 2.5 -0.484375 C 2.445312 -0.0976562 2.492188 0.253906 2.640625 0.578125 C 2.796875 0.898438 3.03125 1.171875 3.34375 1.390625 C 3.644531 1.609375 3.972656 1.734375 4.328125 1.765625 C 4.679688 1.796875 5.03125 1.722656 5.375 1.546875 C 5.726562 1.367188 6.039062 1.09375 6.3125 0.71875 Z M 6.3125 0.71875" stroke-linecap="round" />
</g>
		<g transform="matrix(1.33 0 0 1.33 62.64 -63.92)"  >
<path style="stroke: none; stroke-width: 1; stroke-dasharray: none; stroke-linecap: butt; stroke-dashoffset: 0; stroke-linejoin: miter; stroke-miterlimit: 4; fill: rgb(217,217,217); fill-rule: nonzero; opacity: 1;" vector-effect="non-scaling-stroke"  transform=" translate(-4.01, 1.4)" d="M 4.90625 -2.6875 L 2.640625 0.046875 C 2.441406 0.273438 2.351562 0.472656 2.375 0.640625 C 2.40625 0.816406 2.539062 1.003906 2.78125 1.203125 L 3.34375 1.671875 L 2.796875 2.328125 L 2.109375 1.75 C 1.679688 1.394531 1.4375 1.023438 1.375 0.640625 C 1.320312 0.265625 1.488281 -0.144531 1.875 -0.59375 L 4.140625 -3.328125 L 3.546875 -3.8125 L 4.078125 -4.453125 L 4.671875 -3.96875 L 5.640625 -5.125 L 6.40625 -4.484375 L 5.4375 -3.328125 L 6.65625 -2.3125 L 6.125 -1.671875 Z M 4.90625 -2.6875" stroke-linecap="round" />
</g>
		<g transform="matrix(1.33 0 0 1.33 67.36 -58.55)"  >
<path style="stroke: none; stroke-width: 1; stroke-dasharray: none; stroke-linecap: butt; stroke-dashoffset: 0; stroke-linejoin: miter; stroke-miterlimit: 4; fill: rgb(217,217,217); fill-rule: nonzero; opacity: 1;" vector-effect="non-scaling-stroke"  transform=" translate(-4.57, -0.24)" d="M 6.8125 2.09375 C 6.675781 2.226562 6.53125 2.363281 6.375 2.5 L 2.921875 -0.84375 C 2.523438 -0.394531 2.34375 0.0703125 2.375 0.5625 C 2.40625 1.0625 2.613281 1.5 3 1.875 C 3.3125 2.175781 3.640625 2.351562 3.984375 2.40625 C 4.335938 2.46875 4.671875 2.414062 4.984375 2.25 L 5.765625 3 C 5.242188 3.3125 4.679688 3.425781 4.078125 3.34375 C 3.484375 3.257812 2.929688 2.96875 2.421875 2.46875 C 2.003906 2.070312 1.722656 1.625 1.578125 1.125 C 1.429688 0.632812 1.429688 0.128906 1.578125 -0.390625 C 1.722656 -0.910156 2.015625 -1.394531 2.453125 -1.84375 C 2.878906 -2.289062 3.347656 -2.597656 3.859375 -2.765625 C 4.367188 -2.929688 4.867188 -2.941406 5.359375 -2.796875 C 5.859375 -2.660156 6.320312 -2.390625 6.75 -1.984375 C 7.15625 -1.585938 7.425781 -1.144531 7.5625 -0.65625 C 7.707031 -0.175781 7.710938 0.300781 7.578125 0.78125 C 7.441406 1.257812 7.1875 1.695312 6.8125 2.09375 Z M 6.21875 1.21875 C 6.488281 0.945312 6.65625 0.65625 6.71875 0.34375 C 6.789062 0.0390625 6.769531 -0.257812 6.65625 -0.5625 C 6.550781 -0.875 6.367188 -1.15625 6.109375 -1.40625 C 5.753906 -1.757812 5.332031 -1.945312 4.84375 -1.96875 C 4.363281 -1.988281 3.910156 -1.8125 3.484375 -1.4375 Z M 6.21875 1.21875" stroke-linecap="round" />
</g>
		<g transform="matrix(1.33 0 0 1.33 72.69 -53.96)"  >
<path style="stroke: none; stroke-width: 1; stroke-dasharray: none; stroke-linecap: butt; stroke-dashoffset: 0; stroke-linejoin: miter; stroke-miterlimit: 4; fill: rgb(217,217,217); fill-rule: nonzero; opacity: 1;" vector-effect="non-scaling-stroke"  transform=" translate(-3.84, 0.98)" d="M 5 -1.953125 C 5.375 -2.046875 5.742188 -2.03125 6.109375 -1.90625 C 6.472656 -1.789062 6.8125 -1.5625 7.125 -1.21875 L 6.34375 -0.53125 L 6.15625 -0.71875 C 5.414062 -1.5625 4.59375 -1.582031 3.6875 -0.78125 L 1.21875 1.390625 L 0.5625 0.640625 L 5.09375 -3.34375 L 5.75 -2.59375 Z M 5 -1.953125" stroke-linecap="round" />
</g>
		<g transform="matrix(1.33 0 0 1.33 78.92 -44.93)"  >
<path style="stroke: none; stroke-width: 1; stroke-dasharray: none; stroke-linecap: butt; stroke-dashoffset: 0; stroke-linejoin: miter; stroke-miterlimit: 4; fill: rgb(217,217,217); fill-rule: nonzero; opacity: 1;" vector-effect="non-scaling-stroke"  transform=" translate(-4.11, -0.65)" d="M 1.640625 2.484375 C 1.367188 2.109375 1.191406 1.722656 1.109375 1.328125 C 1.035156 0.941406 1.050781 0.582031 1.15625 0.25 C 1.257812 -0.0820312 1.457031 -0.363281 1.75 -0.59375 L 2.34375 0.25 C 2.113281 0.457031 1.992188 0.71875 1.984375 1.03125 C 1.972656 1.34375 2.082031 1.664062 2.3125 2 C 2.53125 2.3125 2.769531 2.507812 3.03125 2.59375 C 3.300781 2.675781 3.539062 2.644531 3.75 2.5 C 3.957031 2.34375 4.050781 2.128906 4.03125 1.859375 C 4.007812 1.597656 3.910156 1.234375 3.734375 0.765625 C 3.566406 0.335938 3.453125 -0.0195312 3.390625 -0.3125 C 3.328125 -0.613281 3.332031 -0.914062 3.40625 -1.21875 C 3.488281 -1.53125 3.691406 -1.796875 4.015625 -2.015625 C 4.265625 -2.191406 4.546875 -2.28125 4.859375 -2.28125 C 5.171875 -2.28125 5.484375 -2.1875 5.796875 -2 C 6.117188 -1.8125 6.398438 -1.539062 6.640625 -1.1875 C 7.023438 -0.644531 7.195312 -0.109375 7.15625 0.421875 C 7.125 0.953125 6.875 1.398438 6.40625 1.765625 L 5.84375 0.9375 C 6.070312 0.75 6.203125 0.503906 6.234375 0.203125 C 6.265625 -0.0859375 6.164062 -0.398438 5.9375 -0.734375 C 5.738281 -1.015625 5.507812 -1.195312 5.25 -1.28125 C 5 -1.375 4.773438 -1.347656 4.578125 -1.203125 C 4.410156 -1.085938 4.3125 -0.941406 4.28125 -0.765625 C 4.257812 -0.585938 4.269531 -0.394531 4.3125 -0.1875 C 4.363281 0.0078125 4.453125 0.273438 4.578125 0.609375 C 4.722656 1.023438 4.828125 1.378906 4.890625 1.671875 C 4.960938 1.960938 4.957031 2.253906 4.875 2.546875 C 4.800781 2.835938 4.617188 3.09375 4.328125 3.3125 C 4.054688 3.5 3.757812 3.585938 3.4375 3.578125 C 3.113281 3.578125 2.789062 3.484375 2.46875 3.296875 C 2.15625 3.109375 1.878906 2.835938 1.640625 2.484375 Z M 1.640625 2.484375" stroke-linecap="round" />
</g>
		<g transform="matrix(1.33 0 0 1.33 81.51 -37.96)"  >
<path style="stroke: none; stroke-width: 1; stroke-dasharray: none; stroke-linecap: butt; stroke-dashoffset: 0; stroke-linejoin: miter; stroke-miterlimit: 4; fill: rgb(217,217,217); fill-rule: nonzero; opacity: 1;" vector-effect="non-scaling-stroke"  transform=" translate(-2.84, -1.39)" d="M 5.1875 -0.828125 C 5.582031 -0.828125 5.976562 -0.710938 6.375 -0.484375 C 6.769531 -0.253906 7.097656 0.0820312 7.359375 0.53125 C 7.628906 1 7.757812 1.484375 7.75 1.984375 C 7.738281 2.492188 7.59375 2.972656 7.3125 3.421875 C 7.03125 3.867188 6.625 4.242188 6.09375 4.546875 C 5.5625 4.847656 5.023438 5.007812 4.484375 5.03125 C 3.941406 5.050781 3.453125 4.9375 3.015625 4.6875 C 2.578125 4.4375 2.222656 4.078125 1.953125 3.609375 C 1.691406 3.160156 1.5625 2.707031 1.5625 2.25 C 1.570312 1.800781 1.675781 1.40625 1.875 1.0625 L -1.578125 3.03125 L -2.0625 2.15625 L 5.65625 -2.25 L 6.140625 -1.375 Z M 5.578125 3.65625 C 5.972656 3.425781 6.269531 3.148438 6.46875 2.828125 C 6.675781 2.503906 6.78125 2.160156 6.78125 1.796875 C 6.78125 1.441406 6.6875 1.097656 6.5 0.765625 C 6.320312 0.453125 6.070312 0.203125 5.75 0.015625 C 5.4375 -0.160156 5.085938 -0.242188 4.703125 -0.234375 C 4.316406 -0.222656 3.929688 -0.109375 3.546875 0.109375 C 3.140625 0.335938 2.832031 0.613281 2.625 0.9375 C 2.425781 1.269531 2.328125 1.613281 2.328125 1.96875 C 2.328125 2.332031 2.414062 2.671875 2.59375 2.984375 C 2.78125 3.316406 3.03125 3.570312 3.34375 3.75 C 3.65625 3.9375 4.003906 4.023438 4.390625 4.015625 C 4.773438 4.003906 5.171875 3.882812 5.578125 3.65625 Z M 5.578125 3.65625" stroke-linecap="round" />
</g>
		<g transform="matrix(1.33 0 0 1.33 88.04 -28.83)"  >
<path style="stroke: none; stroke-width: 1; stroke-dasharray: none; stroke-linecap: butt; stroke-dashoffset: 0; stroke-linejoin: miter; stroke-miterlimit: 4; fill: rgb(217,217,217); fill-rule: nonzero; opacity: 1;" vector-effect="non-scaling-stroke"  transform=" translate(-4.18, -1.99)" d="M 1.328125 3.203125 C 1.097656 2.691406 1.003906 2.175781 1.046875 1.65625 C 1.085938 1.132812 1.273438 0.65625 1.609375 0.21875 C 1.941406 -0.207031 2.390625 -0.546875 2.953125 -0.796875 C 3.515625 -1.046875 4.066406 -1.140625 4.609375 -1.078125 C 5.160156 -1.023438 5.644531 -0.835938 6.0625 -0.515625 C 6.476562 -0.191406 6.800781 0.226562 7.03125 0.75 C 7.257812 1.269531 7.351562 1.789062 7.3125 2.3125 C 7.269531 2.84375 7.082031 3.320312 6.75 3.75 C 6.425781 4.1875 5.984375 4.53125 5.421875 4.78125 C 4.859375 5.03125 4.300781 5.125 3.75 5.0625 C 3.195312 5.007812 2.710938 4.816406 2.296875 4.484375 C 1.878906 4.148438 1.554688 3.722656 1.328125 3.203125 Z M 2.125 2.859375 C 2.269531 3.191406 2.476562 3.46875 2.75 3.6875 C 3.03125 3.914062 3.363281 4.050781 3.75 4.09375 C 4.132812 4.132812 4.550781 4.054688 5 3.859375 C 5.445312 3.660156 5.785156 3.40625 6.015625 3.09375 C 6.242188 2.78125 6.375 2.445312 6.40625 2.09375 C 6.4375 1.75 6.378906 1.414062 6.234375 1.09375 C 6.078125 0.75 5.863281 0.472656 5.59375 0.265625 C 5.320312 0.0546875 4.992188 -0.0625 4.609375 -0.09375 C 4.234375 -0.125 3.820312 -0.0390625 3.375 0.15625 C 2.925781 0.351562 2.582031 0.597656 2.34375 0.890625 C 2.101562 1.191406 1.96875 1.515625 1.9375 1.859375 C 1.914062 2.203125 1.976562 2.535156 2.125 2.859375 Z M 2.125 2.859375" stroke-linecap="round" />
</g>
		<g transform="matrix(1.33 0 0 1.33 90.97 -22.64)"  >
<path style="stroke: none; stroke-width: 1; stroke-dasharray: none; stroke-linecap: butt; stroke-dashoffset: 0; stroke-linejoin: miter; stroke-miterlimit: 4; fill: rgb(217,217,217); fill-rule: nonzero; opacity: 1;" vector-effect="non-scaling-stroke"  transform=" translate(-3.66, -0.34)" d="M 5.375 0.0625 C 5.757812 0.113281 6.09375 0.265625 6.375 0.515625 C 6.664062 0.765625 6.890625 1.109375 7.046875 1.546875 L 6.078125 1.890625 L 6 1.640625 C 5.625 0.578125 4.859375 0.25 3.703125 0.65625 L 0.609375 1.734375 L 0.28125 0.796875 L 5.96875 -1.203125 L 6.296875 -0.265625 Z M 5.375 0.0625" stroke-linecap="round" />
</g>
		<g transform="matrix(1.33 0 0 1.33 93.48 -16.71)"  >
<path style="stroke: none; stroke-width: 1; stroke-dasharray: none; stroke-linecap: butt; stroke-dashoffset: 0; stroke-linejoin: miter; stroke-miterlimit: 4; fill: rgb(217,217,217); fill-rule: nonzero; opacity: 1;" vector-effect="non-scaling-stroke"  transform=" translate(-4.23, -1.05)" d="M 5.5625 0.546875 L 2.15625 1.53125 C 1.863281 1.613281 1.675781 1.726562 1.59375 1.875 C 1.519531 2.03125 1.523438 2.257812 1.609375 2.5625 L 1.8125 3.265625 L 1 3.5 L 0.75 2.625 C 0.601562 2.09375 0.613281 1.65625 0.78125 1.3125 C 0.945312 0.96875 1.316406 0.71875 1.890625 0.5625 L 5.296875 -0.421875 L 5.078125 -1.171875 L 5.875 -1.390625 L 6.09375 -0.640625 L 7.546875 -1.0625 L 7.8125 -0.09375 L 6.359375 0.328125 L 6.796875 1.84375 L 6 2.0625 Z M 5.5625 0.546875" stroke-linecap="round" />
</g>
		<g transform="matrix(1.33 0 0 1.33 94.02 -10.25)"  >
<path style="stroke: none; stroke-width: 1; stroke-dasharray: none; stroke-linecap: butt; stroke-dashoffset: 0; stroke-linejoin: miter; stroke-miterlimit: 4; fill: rgb(217,217,217); fill-rule: nonzero; opacity: 1;" vector-effect="non-scaling-stroke"  transform=" translate(-3.54, -2.22)" d="M 0.53125 2.9375 C 0.425781 2.476562 0.410156 2.050781 0.484375 1.65625 C 0.566406 1.269531 0.722656 0.941406 0.953125 0.671875 C 1.179688 0.410156 1.476562 0.226562 1.84375 0.125 L 2.0625 1.140625 C 1.757812 1.234375 1.546875 1.425781 1.421875 1.71875 C 1.296875 2.007812 1.273438 2.351562 1.359375 2.75 C 1.429688 3.125 1.570312 3.398438 1.78125 3.578125 C 1.988281 3.753906 2.222656 3.816406 2.484375 3.765625 C 2.734375 3.710938 2.898438 3.554688 2.984375 3.296875 C 3.066406 3.046875 3.113281 2.664062 3.125 2.15625 C 3.144531 1.695312 3.1875 1.316406 3.25 1.015625 C 3.3125 0.710938 3.4375 0.4375 3.625 0.1875 C 3.820312 -0.0625 4.109375 -0.222656 4.484375 -0.296875 C 4.785156 -0.367188 5.078125 -0.34375 5.359375 -0.21875 C 5.648438 -0.09375 5.898438 0.117188 6.109375 0.421875 C 6.328125 0.722656 6.484375 1.082031 6.578125 1.5 C 6.710938 2.15625 6.660156 2.71875 6.421875 3.1875 C 6.179688 3.664062 5.773438 3.976562 5.203125 4.125 L 5 3.140625 C 5.300781 3.054688 5.523438 2.878906 5.671875 2.609375 C 5.816406 2.347656 5.847656 2.023438 5.765625 1.640625 C 5.679688 1.296875 5.539062 1.035156 5.34375 0.859375 C 5.144531 0.691406 4.925781 0.632812 4.6875 0.6875 C 4.488281 0.726562 4.34375 0.820312 4.25 0.96875 C 4.15625 1.125 4.085938 1.300781 4.046875 1.5 C 4.015625 1.707031 3.988281 1.992188 3.96875 2.359375 C 3.9375 2.796875 3.894531 3.160156 3.84375 3.453125 C 3.789062 3.753906 3.671875 4.019531 3.484375 4.25 C 3.304688 4.488281 3.039062 4.648438 2.6875 4.734375 C 2.351562 4.804688 2.039062 4.773438 1.75 4.640625 C 1.457031 4.503906 1.203125 4.289062 0.984375 4 C 0.765625 3.707031 0.613281 3.351562 0.53125 2.9375 Z M 0.53125 2.9375" stroke-linecap="round" />
</g>
</g>
</g>
</svg>